<?xml version="1.0" encoding="UTF-8" standalone="no"?>
<svg width="71px" height="53px" viewBox="0 0 71 53" version="1.1" xmlns="http://www.w3.org/2000/svg" xmlns:xlink="http://www.w3.org/1999/xlink" xmlns:sketch="http://www.bohemiancoding.com/sketch/ns">
    <!-- Generator: Sketch 3.1.1 (8761) - http://www.bohemiancoding.com/sketch -->
    <title>Path 6</title>
    <desc>Created with Sketch.</desc>
    <defs></defs>
    <g id="Page-1" stroke="none" stroke-width="1" fill="none" fill-rule="evenodd" sketch:type="MSPage">
        <path d="M0.683848349,6.38011299 C0.683848349,6.38011299 12.0938011,-4.54514576 27.2572253,4.28754573 C42.4206495,13.1202372 60.6449685,25.4571567 60.6449685,25.4571567 C60.6449685,25.4571567 71.9711356,34.5571194 70.2932627,42.7449653 C68.6153898,50.9328113 63.8076829,51.747353 63.8076829,51.747353 C63.8076829,51.747353 37.7136981,50.4650871 26.1711691,47.8984293 C14.6286401,45.3317714 6.37609796,48.2335794 6.37609796,48.2335794 L14.5480345,41.4128495 C14.5480345,41.4128495 4.00671428,41.806333 12.5838,37.0792308 C21.1608858,32.3521286 26.6982894,30.1322898 26.6982882,26.4795768 C26.698287,22.8268638 0.683848349,6.38011299 0.683848349,6.38011299 Z" id="Path-6" stroke="#000000" sketch:type="MSShapeGroup"></path>
    </g>
</svg>