<?xml version="1.0" encoding="UTF-8" standalone="no"?>
<svg width="257px" height="290px" viewBox="0 0 257 290" version="1.1" xmlns="http://www.w3.org/2000/svg" xmlns:xlink="http://www.w3.org/1999/xlink" xmlns:sketch="http://www.bohemiancoding.com/sketch/ns">
    <!-- Generator: Sketch 3.1.1 (8761) - http://www.bohemiancoding.com/sketch -->
    <title>Path 2</title>
    <desc>Created with Sketch.</desc>
    <defs></defs>
    <g id="Page-1" stroke="none" stroke-width="1" fill="none" fill-rule="evenodd" sketch:type="MSPage">
        <path d="M102.472656,1.13671875 C99.0878808,0.640165845 95.5004886,6.71240188 99.3413087,10.5952146 C103.182129,14.4780272 102.988281,17.0322269 105.826172,18.7851563 C108.118652,20.7749017 109.179687,23.3808594 105.826172,28.5 C102.472656,33.6191406 95.6210939,48.1686182 95.6210939,55.4596339 C95.6210939,62.0527354 91.6861955,66.9414034 114.553223,96.7172823 L102.482422,109.585938 C102.482422,109.585938 83.0878905,131.953125 92.7851563,147.492188 C95.7529298,158.323728 101.355469,166.130859 101.355469,166.130859 L83.5976563,184.867188 L5.97460938,248.294922 C5.97460938,248.294922 -1.73242187,257.552734 3.74804688,264.169922 C2.89208988,270.302747 4.40722648,272.63136 4.40722648,272.63136 C4.40722648,272.63136 16.8359373,301.947266 45.4648438,280.396484 C74.0937502,258.845703 94.996086,226.509766 197.662109,230.716797 C197.662109,230.716797 228.681648,229.888672 238.271484,239.091797 C248.53466,243.856442 270.912117,216.160156 239.351562,204.21875 L226.410156,203.345703 C226.410156,203.345703 125.78125,199.757813 54.3261719,242.388672 C54.3261719,242.388672 29.8320313,255.439453 17.3632813,255.439453 C4.89453116,255.439453 16.2656325,244.017578 112.253906,198.160156 C112.253906,198.160156 136.550781,191.197266 137.324219,169.794922 C137.324219,169.794922 134.998047,156.154297 124.439453,147.439453 C124.439453,147.439453 115.478516,145.638672 144.117188,128.224609 C144.117188,128.224609 169.981445,109.796875 143.02832,81.4316406 C143.02832,81.4316406 135.235832,75.2890657 136.130364,70.4433625 C138.684563,67.4873079 140.843739,63.1971448 144.166016,57.21875 C158.813469,30.8608392 134.625,15.1972656 134.625,15.1972656 C134.625,15.1972656 116.611817,4.93310537 113.072754,6.21484358 C110.80127,4.93310537 109.637695,3.34326172 109.637695,3.34326172 C109.637695,3.34326172 105.857432,1.63327166 102.472656,1.13671875 Z" id="Path-2" stroke="#000000" sketch:type="MSShapeGroup"></path>
    </g>
</svg>