<?xml version="1.0" encoding="UTF-8" standalone="no"?>
<svg width="257px" height="343px" viewBox="0 0 257 343" version="1.1" xmlns="http://www.w3.org/2000/svg" xmlns:xlink="http://www.w3.org/1999/xlink" xmlns:sketch="http://www.bohemiancoding.com/sketch/ns">
    <!-- Generator: Sketch 3.1.1 (8761) - http://www.bohemiancoding.com/sketch -->
    <title>Group</title>
    <desc>Created with Sketch.</desc>
    <defs></defs>
    <g id="Page-1" stroke="none" stroke-width="1" fill="none" fill-rule="evenodd" sketch:type="MSPage">
        <g id="Group" sketch:type="MSLayerGroup" transform="translate(2.000000, 1.000000)" stroke="#000000" fill="#000000">
            <path d="M100.472656,0.13671875 C97.0878808,-0.359834155 93.5004886,5.71240188 97.3413087,9.59521455 C101.182129,13.4780272 100.988281,16.0322269 103.826172,17.7851563 C106.118652,19.7749017 107.179687,22.3808594 103.826172,27.5 C100.472656,32.6191406 93.6210939,47.1686182 93.6210939,54.4596339 C93.6210939,61.0527354 89.6861955,65.9414034 112.553223,95.7172823 L100.482422,108.585938 C100.482422,108.585938 81.0878905,130.953125 90.7851563,146.492188 C93.7529298,157.323728 99.3554688,165.130859 99.3554688,165.130859 L81.5976563,183.867188 L3.97460938,247.294922 C3.97460938,247.294922 -3.73242187,256.552734 1.74804688,263.169922 C0.892089877,269.302747 2.40722648,271.63136 2.40722648,271.63136 C2.40722648,271.63136 14.8359373,300.947266 43.4648438,279.396484 C72.0937502,257.845703 92.996086,225.509766 195.662109,229.716797 C195.662109,229.716797 226.681648,228.888672 236.271484,238.091797 C246.53466,242.856442 268.912117,215.160156 237.351562,203.21875 L224.410156,202.345703 C224.410156,202.345703 123.78125,198.757813 52.3261719,241.388672 C52.3261719,241.388672 27.8320313,254.439453 15.3632813,254.439453 C2.89453116,254.439453 14.2656325,243.017578 110.253906,197.160156 C110.253906,197.160156 134.550781,190.197266 135.324219,168.794922 C135.324219,168.794922 132.998047,155.154297 122.439453,146.439453 C122.439453,146.439453 113.478516,144.638672 142.117188,127.224609 C142.117188,127.224609 167.981445,108.796875 141.02832,80.4316406 C141.02832,80.4316406 133.235832,74.2890657 134.130364,69.4433625 C136.684563,66.4873079 138.843739,62.1971448 142.166016,56.21875 C156.813469,29.8608392 132.625,14.1972656 132.625,14.1972656 C132.625,14.1972656 114.611817,3.93310537 111.072754,5.21484358 C108.80127,3.93310537 107.637695,2.34326172 107.637695,2.34326172 C107.637695,2.34326172 103.857432,0.633271655 100.472656,0.13671875 Z" id="Path-2" sketch:type="MSShapeGroup"></path>
            <path d="M129.580078,208.283203 C129.580078,208.283203 145.855469,181.800781 153.414062,165.818359 C156.34668,161.303711 177.600586,129.400391 203.22168,161.841797 C216.158203,192.382811 199.016602,224.993166 124.699219,282.574221 C123.200195,282.574225 97.8125,290.767578 97.8125,290.767578 C97.8125,290.767578 184.089844,211.646487 175.681641,167.796875 C165.029297,171.72168 150.513672,201.662109 150.513672,201.662109 L129.580078,208.283203 Z" id="Path-3" sketch:type="MSShapeGroup"></path>
            <path d="M55.7434896,308.58724 C55.7434896,308.58724 68.7773441,326.532551 74.9609375,333.080729 C81.4648431,344.703125 99.3346354,339.539062 99.3346354,339.539062 L111.545572,334.675781 L117.251302,303.417969 L127.964841,288.509114 L95.9622396,305.986979 C95.9622396,305.986979 79.640625,311.190105 74.0846354,307.640625 C68.5286458,304.091145 62.8033854,303.417969 62.8033854,303.417969 L56.9856771,306.986979 L55.7434896,308.58724 Z" id="Path-6" sketch:type="MSShapeGroup"></path>
            <path d="M133.683848,292.380113 C133.683848,292.380113 145.093801,281.454854 160.257225,290.287546 C175.420649,299.120237 193.644969,311.457157 193.644969,311.457157 C193.644969,311.457157 204.971136,320.557119 203.293263,328.744965 C201.61539,336.932811 196.807683,337.747353 196.807683,337.747353 C196.807683,337.747353 170.713698,336.465087 159.171169,333.898429 C147.62864,331.331771 139.376098,334.233579 139.376098,334.233579 L147.548034,327.41285 C147.548034,327.41285 137.006714,327.806333 145.5838,323.079231 C154.160886,318.352129 159.698289,316.13229 159.698288,312.479577 C159.698287,308.826864 133.683848,292.380113 133.683848,292.380113 Z" id="Path-6" sketch:type="MSShapeGroup"></path>
            <path d="M55.2942708,219.602865 C55.2942708,219.602865 84.2773425,250.621092 96.3828125,260.738281 C108.488283,270.85547 96.8138021,279.065104 96.8138021,279.065104 C96.8138021,279.065104 89.6367194,287.438801 80.8320312,280.549479 C72.0273431,273.660158 66.3945306,271.083332 46.6731771,226.94401 C46.6731769,215.694011 55.2942708,219.602865 55.2942708,219.602865 Z" id="Path-4" sketch:type="MSShapeGroup"></path>
            <path d="M85.2565105,213.140625 C87.7278645,217.192708 88.8710938,219.511719 92.6744792,230.296875 C96.4778646,241.082031 100.020833,250.096353 105.583333,255.403646 C111.145833,260.710939 110.983073,264.104168 110.983073,264.104167 C110.983073,264.104167 117.610679,265.994793 117.610677,274.653646 C117.610677,274.653646 120.914063,286.846353 127.541667,271.347656 C134.169271,255.84896 124.957032,230.042969 114.433594,221.264323 C103.910156,212.485677 96.6354167,206.929688 96.6354167,206.929688 C96.6354167,206.929688 86.2472395,207.29591 85.2565105,213.140625 Z" id="Path-5" sketch:type="MSShapeGroup"></path>
        </g>
    </g>
</svg>